<?xml version="1.0" standalone="no"?>
<!DOCTYPE svg PUBLIC "-//W3C//DTD SVG 20010904//EN"
 "http://www.w3.org/TR/2001/REC-SVG-20010904/DTD/svg10.dtd">
<svg version="1.0" xmlns="http://www.w3.org/2000/svg"
 width="32.000000pt" height="32.000000pt" viewBox="0 0 32.000000 32.000000"
 preserveAspectRatio="xMidYMid meet">

<g transform="translate(0.000000,32.000000) scale(0.100000,-0.100000)"
fill="#000000" stroke="none">
<path d="M0 160 l0 -160 160 0 160 0 0 160 0 160 -160 0 -160 0 0 -160z m282
70 c23 -9 23 -9 1 -9 -14 -1 -25 -10 -31 -28 -10 -27 -10 -27 -11 -5 -1 16 -9
26 -23 30 l-22 5 22 8 c14 5 22 17 23 31 l0 23 9 -23 c5 -12 20 -27 32 -32z
m-52 -35 c0 -24 -27 -72 -50 -88 -18 -13 -19 -16 -5 -27 8 -7 15 -16 15 -21 0
-18 -37 -8 -60 16 -30 32 -48 32 -60 0 -6 -15 -17 -25 -30 -25 -26 0 -25 5 6
89 l26 71 79 0 c65 0 79 -3 79 -15z"/>
<path d="M100 155 c0 -10 11 -15 35 -15 24 0 35 5 35 15 0 10 -11 15 -35 15
-24 0 -35 -5 -35 -15z"/>
</g>
</svg>
